<mxfile host="app.diagrams.net" modified="2024-04-11T18:24:07.174Z" agent="Mozilla/5.0 (Windows NT 10.0; Win64; x64) AppleWebKit/537.36 (KHTML, like Gecko) Chrome/123.0.0.0 Safari/537.36" etag="RDBCWtnklOIUhFn0mp_m" version="24.2.3" type="github">
  <diagram name="PÃ¡gina-1" id="m194DB5OODm50t4TiOIn">
    <mxGraphModel dx="1914" dy="1018" grid="1" gridSize="10" guides="1" tooltips="1" connect="1" arrows="1" fold="1" page="1" pageScale="1" pageWidth="827" pageHeight="1169" math="0" shadow="0">
      <root>
        <mxCell id="0" />
        <mxCell id="1" parent="0" />
        <mxCell id="oNFGNhtA4SceddN9MFem-205" value="" style="group" vertex="1" connectable="0" parent="1">
          <mxGeometry x="40" y="410" width="1000" height="73" as="geometry" />
        </mxCell>
        <mxCell id="oNFGNhtA4SceddN9MFem-169" value="" style="group" vertex="1" connectable="0" parent="oNFGNhtA4SceddN9MFem-205">
          <mxGeometry y="30" width="1000" height="43" as="geometry" />
        </mxCell>
        <mxCell id="oNFGNhtA4SceddN9MFem-156" value="" style="group" vertex="1" connectable="0" parent="oNFGNhtA4SceddN9MFem-169">
          <mxGeometry width="200" height="43" as="geometry" />
        </mxCell>
        <mxCell id="oNFGNhtA4SceddN9MFem-154" value="" style="swimlane;startSize=0;" vertex="1" parent="oNFGNhtA4SceddN9MFem-156">
          <mxGeometry width="200" height="41.5" as="geometry" />
        </mxCell>
        <mxCell id="oNFGNhtA4SceddN9MFem-155" value="&lt;font style=&quot;font-size: 24px;&quot;&gt;codigo&lt;/font&gt;" style="text;html=1;align=center;verticalAlign=middle;resizable=0;points=[];autosize=1;strokeColor=none;fillColor=none;" vertex="1" parent="oNFGNhtA4SceddN9MFem-154">
          <mxGeometry x="55" y="1.5" width="90" height="40" as="geometry" />
        </mxCell>
        <mxCell id="oNFGNhtA4SceddN9MFem-186" value="&lt;font color=&quot;#014e66&quot; style=&quot;font-size: 24px;&quot;&gt;PK&lt;/font&gt;" style="text;html=1;align=center;verticalAlign=middle;whiteSpace=wrap;rounded=0;" vertex="1" parent="oNFGNhtA4SceddN9MFem-154">
          <mxGeometry x="-10" y="6.5" width="60" height="30" as="geometry" />
        </mxCell>
        <mxCell id="oNFGNhtA4SceddN9MFem-157" value="" style="group" vertex="1" connectable="0" parent="oNFGNhtA4SceddN9MFem-169">
          <mxGeometry x="200" width="200" height="43" as="geometry" />
        </mxCell>
        <mxCell id="oNFGNhtA4SceddN9MFem-158" value="" style="swimlane;startSize=0;" vertex="1" parent="oNFGNhtA4SceddN9MFem-157">
          <mxGeometry width="200" height="41.5" as="geometry">
            <mxRectangle width="50" height="40" as="alternateBounds" />
          </mxGeometry>
        </mxCell>
        <mxCell id="oNFGNhtA4SceddN9MFem-159" value="&lt;font style=&quot;font-size: 24px;&quot;&gt;descricao&lt;/font&gt;" style="text;html=1;align=center;verticalAlign=middle;resizable=0;points=[];autosize=1;strokeColor=none;fillColor=none;" vertex="1" parent="oNFGNhtA4SceddN9MFem-158">
          <mxGeometry x="35" y="1.5" width="130" height="40" as="geometry" />
        </mxCell>
        <mxCell id="oNFGNhtA4SceddN9MFem-160" value="" style="group" vertex="1" connectable="0" parent="oNFGNhtA4SceddN9MFem-169">
          <mxGeometry x="400" width="200" height="43" as="geometry" />
        </mxCell>
        <mxCell id="oNFGNhtA4SceddN9MFem-161" value="" style="swimlane;startSize=0;" vertex="1" parent="oNFGNhtA4SceddN9MFem-160">
          <mxGeometry width="200" height="41.5" as="geometry" />
        </mxCell>
        <mxCell id="oNFGNhtA4SceddN9MFem-162" value="&lt;font style=&quot;font-size: 24px;&quot;&gt;salario&lt;/font&gt;" style="text;html=1;align=center;verticalAlign=middle;resizable=0;points=[];autosize=1;strokeColor=none;fillColor=none;" vertex="1" parent="oNFGNhtA4SceddN9MFem-161">
          <mxGeometry x="55" y="1.5" width="90" height="40" as="geometry" />
        </mxCell>
        <mxCell id="oNFGNhtA4SceddN9MFem-204" value="&lt;b&gt;Profissao&lt;/b&gt;" style="text;html=1;align=left;verticalAlign=middle;whiteSpace=wrap;rounded=0;" vertex="1" parent="oNFGNhtA4SceddN9MFem-205">
          <mxGeometry width="110" height="30" as="geometry" />
        </mxCell>
        <mxCell id="oNFGNhtA4SceddN9MFem-207" value="" style="group" vertex="1" connectable="0" parent="1">
          <mxGeometry x="40" y="530" width="1000" height="73" as="geometry" />
        </mxCell>
        <mxCell id="oNFGNhtA4SceddN9MFem-208" value="" style="group" vertex="1" connectable="0" parent="oNFGNhtA4SceddN9MFem-207">
          <mxGeometry y="30" width="1000" height="43" as="geometry" />
        </mxCell>
        <mxCell id="oNFGNhtA4SceddN9MFem-209" value="" style="group" vertex="1" connectable="0" parent="oNFGNhtA4SceddN9MFem-208">
          <mxGeometry width="200" height="43" as="geometry" />
        </mxCell>
        <mxCell id="oNFGNhtA4SceddN9MFem-210" value="" style="swimlane;startSize=0;" vertex="1" parent="oNFGNhtA4SceddN9MFem-209">
          <mxGeometry width="200" height="41.5" as="geometry" />
        </mxCell>
        <mxCell id="oNFGNhtA4SceddN9MFem-211" value="&lt;font style=&quot;font-size: 24px;&quot;&gt;codigo&lt;/font&gt;" style="text;html=1;align=center;verticalAlign=middle;resizable=0;points=[];autosize=1;strokeColor=none;fillColor=none;" vertex="1" parent="oNFGNhtA4SceddN9MFem-210">
          <mxGeometry x="55" y="1.5" width="90" height="40" as="geometry" />
        </mxCell>
        <mxCell id="oNFGNhtA4SceddN9MFem-212" value="&lt;font color=&quot;#014e66&quot; style=&quot;font-size: 24px;&quot;&gt;PK&lt;/font&gt;" style="text;html=1;align=center;verticalAlign=middle;whiteSpace=wrap;rounded=0;" vertex="1" parent="oNFGNhtA4SceddN9MFem-210">
          <mxGeometry x="-10" y="6.5" width="60" height="30" as="geometry" />
        </mxCell>
        <mxCell id="oNFGNhtA4SceddN9MFem-213" value="" style="group" vertex="1" connectable="0" parent="oNFGNhtA4SceddN9MFem-208">
          <mxGeometry x="200" width="200" height="43" as="geometry" />
        </mxCell>
        <mxCell id="oNFGNhtA4SceddN9MFem-214" value="" style="swimlane;startSize=0;" vertex="1" parent="oNFGNhtA4SceddN9MFem-213">
          <mxGeometry width="200" height="41.5" as="geometry">
            <mxRectangle width="50" height="40" as="alternateBounds" />
          </mxGeometry>
        </mxCell>
        <mxCell id="oNFGNhtA4SceddN9MFem-215" value="&lt;font style=&quot;font-size: 24px;&quot;&gt;nome&lt;/font&gt;" style="text;html=1;align=center;verticalAlign=middle;resizable=0;points=[];autosize=1;strokeColor=none;fillColor=none;" vertex="1" parent="oNFGNhtA4SceddN9MFem-214">
          <mxGeometry x="60" y="1.5" width="80" height="40" as="geometry" />
        </mxCell>
        <mxCell id="oNFGNhtA4SceddN9MFem-216" value="" style="group" vertex="1" connectable="0" parent="oNFGNhtA4SceddN9MFem-208">
          <mxGeometry x="400" width="200" height="43" as="geometry" />
        </mxCell>
        <mxCell id="oNFGNhtA4SceddN9MFem-217" value="" style="swimlane;startSize=0;" vertex="1" parent="oNFGNhtA4SceddN9MFem-216">
          <mxGeometry width="200" height="41.5" as="geometry" />
        </mxCell>
        <mxCell id="oNFGNhtA4SceddN9MFem-218" value="&lt;font style=&quot;font-size: 24px;&quot;&gt;email&lt;/font&gt;" style="text;html=1;align=center;verticalAlign=middle;resizable=0;points=[];autosize=1;strokeColor=none;fillColor=none;" vertex="1" parent="oNFGNhtA4SceddN9MFem-217">
          <mxGeometry x="60" y="1.5" width="80" height="40" as="geometry" />
        </mxCell>
        <mxCell id="oNFGNhtA4SceddN9MFem-219" value="" style="group" vertex="1" connectable="0" parent="oNFGNhtA4SceddN9MFem-208">
          <mxGeometry x="600" width="200" height="43" as="geometry" />
        </mxCell>
        <mxCell id="oNFGNhtA4SceddN9MFem-220" value="" style="swimlane;startSize=0;" vertex="1" parent="oNFGNhtA4SceddN9MFem-219">
          <mxGeometry width="200" height="41.5" as="geometry" />
        </mxCell>
        <mxCell id="oNFGNhtA4SceddN9MFem-221" value="&lt;font style=&quot;font-size: 24px;&quot;&gt;endereco&lt;/font&gt;" style="text;html=1;align=center;verticalAlign=middle;resizable=0;points=[];autosize=1;strokeColor=none;fillColor=none;" vertex="1" parent="oNFGNhtA4SceddN9MFem-220">
          <mxGeometry x="40" y="1.5" width="120" height="40" as="geometry" />
        </mxCell>
        <mxCell id="oNFGNhtA4SceddN9MFem-225" value="&lt;b&gt;Cliente&lt;/b&gt;" style="text;html=1;align=left;verticalAlign=middle;whiteSpace=wrap;rounded=0;" vertex="1" parent="oNFGNhtA4SceddN9MFem-207">
          <mxGeometry width="110" height="30" as="geometry" />
        </mxCell>
        <mxCell id="oNFGNhtA4SceddN9MFem-226" value="" style="group" vertex="1" connectable="0" parent="1">
          <mxGeometry x="40" y="650" width="1000" height="73" as="geometry" />
        </mxCell>
        <mxCell id="oNFGNhtA4SceddN9MFem-227" value="" style="group" vertex="1" connectable="0" parent="oNFGNhtA4SceddN9MFem-226">
          <mxGeometry y="30" width="1000" height="43" as="geometry" />
        </mxCell>
        <mxCell id="oNFGNhtA4SceddN9MFem-228" value="" style="group" vertex="1" connectable="0" parent="oNFGNhtA4SceddN9MFem-227">
          <mxGeometry width="200" height="43" as="geometry" />
        </mxCell>
        <mxCell id="oNFGNhtA4SceddN9MFem-229" value="" style="swimlane;startSize=0;" vertex="1" parent="oNFGNhtA4SceddN9MFem-228">
          <mxGeometry width="200" height="41.5" as="geometry" />
        </mxCell>
        <mxCell id="oNFGNhtA4SceddN9MFem-230" value="&lt;font style=&quot;font-size: 24px;&quot;&gt;codigo&lt;/font&gt;" style="text;html=1;align=center;verticalAlign=middle;resizable=0;points=[];autosize=1;strokeColor=none;fillColor=none;" vertex="1" parent="oNFGNhtA4SceddN9MFem-229">
          <mxGeometry x="55" y="1.5" width="90" height="40" as="geometry" />
        </mxCell>
        <mxCell id="oNFGNhtA4SceddN9MFem-231" value="&lt;font color=&quot;#014e66&quot; style=&quot;font-size: 24px;&quot;&gt;PK&lt;/font&gt;" style="text;html=1;align=center;verticalAlign=middle;whiteSpace=wrap;rounded=0;" vertex="1" parent="oNFGNhtA4SceddN9MFem-229">
          <mxGeometry x="-10" y="6.5" width="60" height="30" as="geometry" />
        </mxCell>
        <mxCell id="oNFGNhtA4SceddN9MFem-232" value="" style="group" vertex="1" connectable="0" parent="oNFGNhtA4SceddN9MFem-227">
          <mxGeometry x="200" width="200" height="43" as="geometry" />
        </mxCell>
        <mxCell id="oNFGNhtA4SceddN9MFem-233" value="" style="swimlane;startSize=0;" vertex="1" parent="oNFGNhtA4SceddN9MFem-232">
          <mxGeometry width="200" height="41.5" as="geometry">
            <mxRectangle width="50" height="40" as="alternateBounds" />
          </mxGeometry>
        </mxCell>
        <mxCell id="oNFGNhtA4SceddN9MFem-234" value="&lt;font style=&quot;font-size: 24px;&quot;&gt;descricao&lt;/font&gt;" style="text;html=1;align=center;verticalAlign=middle;resizable=0;points=[];autosize=1;strokeColor=none;fillColor=none;" vertex="1" parent="oNFGNhtA4SceddN9MFem-233">
          <mxGeometry x="35" y="1.5" width="130" height="40" as="geometry" />
        </mxCell>
        <mxCell id="oNFGNhtA4SceddN9MFem-235" value="" style="group" vertex="1" connectable="0" parent="oNFGNhtA4SceddN9MFem-227">
          <mxGeometry x="400" width="200" height="43" as="geometry" />
        </mxCell>
        <mxCell id="oNFGNhtA4SceddN9MFem-236" value="" style="swimlane;startSize=0;" vertex="1" parent="oNFGNhtA4SceddN9MFem-235">
          <mxGeometry width="200" height="41.5" as="geometry" />
        </mxCell>
        <mxCell id="oNFGNhtA4SceddN9MFem-237" value="&lt;font style=&quot;font-size: 24px;&quot;&gt;email&lt;/font&gt;" style="text;html=1;align=center;verticalAlign=middle;resizable=0;points=[];autosize=1;strokeColor=none;fillColor=none;" vertex="1" parent="oNFGNhtA4SceddN9MFem-236">
          <mxGeometry x="60" y="1.5" width="80" height="40" as="geometry" />
        </mxCell>
        <mxCell id="oNFGNhtA4SceddN9MFem-238" value="" style="group" vertex="1" connectable="0" parent="oNFGNhtA4SceddN9MFem-227">
          <mxGeometry x="600" width="200" height="43" as="geometry" />
        </mxCell>
        <mxCell id="oNFGNhtA4SceddN9MFem-239" value="" style="swimlane;startSize=0;" vertex="1" parent="oNFGNhtA4SceddN9MFem-238">
          <mxGeometry width="200" height="41.5" as="geometry" />
        </mxCell>
        <mxCell id="oNFGNhtA4SceddN9MFem-240" value="&lt;font style=&quot;font-size: 24px;&quot;&gt;endereco&lt;/font&gt;" style="text;html=1;align=center;verticalAlign=middle;resizable=0;points=[];autosize=1;strokeColor=none;fillColor=none;" vertex="1" parent="oNFGNhtA4SceddN9MFem-239">
          <mxGeometry x="40" y="1.5" width="120" height="40" as="geometry" />
        </mxCell>
        <mxCell id="oNFGNhtA4SceddN9MFem-244" value="&lt;b&gt;Local&lt;/b&gt;" style="text;html=1;align=left;verticalAlign=middle;whiteSpace=wrap;rounded=0;" vertex="1" parent="oNFGNhtA4SceddN9MFem-226">
          <mxGeometry width="110" height="30" as="geometry" />
        </mxCell>
        <mxCell id="oNFGNhtA4SceddN9MFem-271" value="" style="group" vertex="1" connectable="0" parent="1">
          <mxGeometry x="40" y="290" width="1230" height="73" as="geometry" />
        </mxCell>
        <mxCell id="oNFGNhtA4SceddN9MFem-206" value="" style="group" vertex="1" connectable="0" parent="oNFGNhtA4SceddN9MFem-271">
          <mxGeometry width="1000" height="73" as="geometry" />
        </mxCell>
        <mxCell id="oNFGNhtA4SceddN9MFem-136" value="&lt;b&gt;Profissional&lt;/b&gt;" style="text;html=1;align=left;verticalAlign=middle;whiteSpace=wrap;rounded=0;" vertex="1" parent="oNFGNhtA4SceddN9MFem-206">
          <mxGeometry width="110" height="30" as="geometry" />
        </mxCell>
        <mxCell id="oNFGNhtA4SceddN9MFem-187" value="" style="group" vertex="1" connectable="0" parent="oNFGNhtA4SceddN9MFem-206">
          <mxGeometry y="30" width="1000" height="43" as="geometry" />
        </mxCell>
        <mxCell id="oNFGNhtA4SceddN9MFem-188" value="" style="group" vertex="1" connectable="0" parent="oNFGNhtA4SceddN9MFem-187">
          <mxGeometry width="200" height="43" as="geometry" />
        </mxCell>
        <mxCell id="oNFGNhtA4SceddN9MFem-189" value="" style="swimlane;startSize=0;" vertex="1" parent="oNFGNhtA4SceddN9MFem-188">
          <mxGeometry width="200" height="41.5" as="geometry" />
        </mxCell>
        <mxCell id="oNFGNhtA4SceddN9MFem-190" value="&lt;font style=&quot;font-size: 24px;&quot;&gt;codigo&lt;/font&gt;" style="text;html=1;align=center;verticalAlign=middle;resizable=0;points=[];autosize=1;strokeColor=none;fillColor=none;" vertex="1" parent="oNFGNhtA4SceddN9MFem-189">
          <mxGeometry x="55" y="1.5" width="90" height="40" as="geometry" />
        </mxCell>
        <mxCell id="oNFGNhtA4SceddN9MFem-191" value="&lt;font color=&quot;#014e66&quot; style=&quot;font-size: 24px;&quot;&gt;PK&lt;/font&gt;" style="text;html=1;align=center;verticalAlign=middle;whiteSpace=wrap;rounded=0;" vertex="1" parent="oNFGNhtA4SceddN9MFem-189">
          <mxGeometry x="-10" y="6.5" width="60" height="30" as="geometry" />
        </mxCell>
        <mxCell id="oNFGNhtA4SceddN9MFem-192" value="" style="group" vertex="1" connectable="0" parent="oNFGNhtA4SceddN9MFem-187">
          <mxGeometry x="200" width="200" height="43" as="geometry" />
        </mxCell>
        <mxCell id="oNFGNhtA4SceddN9MFem-193" value="" style="swimlane;startSize=0;" vertex="1" parent="oNFGNhtA4SceddN9MFem-192">
          <mxGeometry width="200" height="41.5" as="geometry">
            <mxRectangle width="50" height="40" as="alternateBounds" />
          </mxGeometry>
        </mxCell>
        <mxCell id="oNFGNhtA4SceddN9MFem-194" value="&lt;font style=&quot;font-size: 24px;&quot;&gt;nome&lt;/font&gt;" style="text;html=1;align=center;verticalAlign=middle;resizable=0;points=[];autosize=1;strokeColor=none;fillColor=none;" vertex="1" parent="oNFGNhtA4SceddN9MFem-193">
          <mxGeometry x="60" y="1.5" width="80" height="40" as="geometry" />
        </mxCell>
        <mxCell id="oNFGNhtA4SceddN9MFem-195" value="" style="group" vertex="1" connectable="0" parent="oNFGNhtA4SceddN9MFem-187">
          <mxGeometry x="400" width="200" height="43" as="geometry" />
        </mxCell>
        <mxCell id="oNFGNhtA4SceddN9MFem-196" value="" style="swimlane;startSize=0;" vertex="1" parent="oNFGNhtA4SceddN9MFem-195">
          <mxGeometry width="200" height="41.5" as="geometry" />
        </mxCell>
        <mxCell id="oNFGNhtA4SceddN9MFem-197" value="&lt;font style=&quot;font-size: 24px;&quot;&gt;email&lt;/font&gt;" style="text;html=1;align=center;verticalAlign=middle;resizable=0;points=[];autosize=1;strokeColor=none;fillColor=none;" vertex="1" parent="oNFGNhtA4SceddN9MFem-196">
          <mxGeometry x="60" y="1.5" width="80" height="40" as="geometry" />
        </mxCell>
        <mxCell id="oNFGNhtA4SceddN9MFem-198" value="" style="group" vertex="1" connectable="0" parent="oNFGNhtA4SceddN9MFem-187">
          <mxGeometry x="600" width="200" height="43" as="geometry" />
        </mxCell>
        <mxCell id="oNFGNhtA4SceddN9MFem-199" value="" style="swimlane;startSize=0;" vertex="1" parent="oNFGNhtA4SceddN9MFem-198">
          <mxGeometry width="200" height="41.5" as="geometry" />
        </mxCell>
        <mxCell id="oNFGNhtA4SceddN9MFem-200" value="&lt;font style=&quot;font-size: 24px;&quot;&gt;endereco&lt;/font&gt;" style="text;html=1;align=center;verticalAlign=middle;resizable=0;points=[];autosize=1;strokeColor=none;fillColor=none;" vertex="1" parent="oNFGNhtA4SceddN9MFem-199">
          <mxGeometry x="40" y="1.5" width="120" height="40" as="geometry" />
        </mxCell>
        <mxCell id="oNFGNhtA4SceddN9MFem-201" value="" style="group" vertex="1" connectable="0" parent="oNFGNhtA4SceddN9MFem-187">
          <mxGeometry x="800" width="200" height="43" as="geometry" />
        </mxCell>
        <mxCell id="oNFGNhtA4SceddN9MFem-202" value="" style="swimlane;startSize=0;" vertex="1" parent="oNFGNhtA4SceddN9MFem-201">
          <mxGeometry width="200" height="41.5" as="geometry" />
        </mxCell>
        <mxCell id="oNFGNhtA4SceddN9MFem-203" value="&lt;font style=&quot;font-size: 24px;&quot;&gt;salario&lt;/font&gt;" style="text;html=1;align=center;verticalAlign=middle;resizable=0;points=[];autosize=1;strokeColor=none;fillColor=none;" vertex="1" parent="oNFGNhtA4SceddN9MFem-202">
          <mxGeometry x="55" y="1.5" width="90" height="40" as="geometry" />
        </mxCell>
        <mxCell id="oNFGNhtA4SceddN9MFem-269" value="" style="swimlane;startSize=0;" vertex="1" parent="oNFGNhtA4SceddN9MFem-271">
          <mxGeometry x="1001" y="30" width="229" height="41.5" as="geometry" />
        </mxCell>
        <mxCell id="oNFGNhtA4SceddN9MFem-270" value="&lt;font style=&quot;font-size: 24px;&quot;&gt;profissao_codigo&lt;/font&gt;" style="text;html=1;align=center;verticalAlign=middle;resizable=0;points=[];autosize=1;strokeColor=none;fillColor=none;" vertex="1" parent="oNFGNhtA4SceddN9MFem-269">
          <mxGeometry x="29" y="0.5" width="200" height="40" as="geometry" />
        </mxCell>
        <mxCell id="oNFGNhtA4SceddN9MFem-287" value="&lt;font color=&quot;#ff3333&quot; style=&quot;font-size: 24px;&quot;&gt;FK&lt;/font&gt;" style="text;html=1;align=center;verticalAlign=middle;whiteSpace=wrap;rounded=0;" vertex="1" parent="oNFGNhtA4SceddN9MFem-269">
          <mxGeometry x="-11" y="6.75" width="60" height="30" as="geometry" />
        </mxCell>
        <mxCell id="oNFGNhtA4SceddN9MFem-275" value="" style="group" vertex="1" connectable="0" parent="1">
          <mxGeometry x="40" y="770" width="1400" height="73" as="geometry" />
        </mxCell>
        <mxCell id="oNFGNhtA4SceddN9MFem-267" value="" style="group" vertex="1" connectable="0" parent="oNFGNhtA4SceddN9MFem-275">
          <mxGeometry width="1200" height="73" as="geometry" />
        </mxCell>
        <mxCell id="oNFGNhtA4SceddN9MFem-245" value="" style="group" vertex="1" connectable="0" parent="oNFGNhtA4SceddN9MFem-267">
          <mxGeometry width="1000" height="73" as="geometry" />
        </mxCell>
        <mxCell id="oNFGNhtA4SceddN9MFem-246" value="" style="group" vertex="1" connectable="0" parent="oNFGNhtA4SceddN9MFem-245">
          <mxGeometry y="30" width="1000" height="43" as="geometry" />
        </mxCell>
        <mxCell id="oNFGNhtA4SceddN9MFem-247" value="" style="group" vertex="1" connectable="0" parent="oNFGNhtA4SceddN9MFem-246">
          <mxGeometry width="200" height="43" as="geometry" />
        </mxCell>
        <mxCell id="oNFGNhtA4SceddN9MFem-248" value="" style="swimlane;startSize=0;" vertex="1" parent="oNFGNhtA4SceddN9MFem-247">
          <mxGeometry width="200" height="41.5" as="geometry" />
        </mxCell>
        <mxCell id="oNFGNhtA4SceddN9MFem-249" value="&lt;font style=&quot;font-size: 24px;&quot;&gt;codigo&lt;/font&gt;" style="text;html=1;align=center;verticalAlign=middle;resizable=0;points=[];autosize=1;strokeColor=none;fillColor=none;" vertex="1" parent="oNFGNhtA4SceddN9MFem-248">
          <mxGeometry x="55" y="1.5" width="90" height="40" as="geometry" />
        </mxCell>
        <mxCell id="oNFGNhtA4SceddN9MFem-250" value="&lt;font color=&quot;#014e66&quot; style=&quot;font-size: 24px;&quot;&gt;PK&lt;/font&gt;" style="text;html=1;align=center;verticalAlign=middle;whiteSpace=wrap;rounded=0;" vertex="1" parent="oNFGNhtA4SceddN9MFem-248">
          <mxGeometry x="-10" y="6.5" width="60" height="30" as="geometry" />
        </mxCell>
        <mxCell id="oNFGNhtA4SceddN9MFem-251" value="" style="group" vertex="1" connectable="0" parent="oNFGNhtA4SceddN9MFem-246">
          <mxGeometry x="200" width="200" height="43" as="geometry" />
        </mxCell>
        <mxCell id="oNFGNhtA4SceddN9MFem-252" value="" style="swimlane;startSize=0;" vertex="1" parent="oNFGNhtA4SceddN9MFem-251">
          <mxGeometry width="200" height="41.5" as="geometry">
            <mxRectangle width="50" height="40" as="alternateBounds" />
          </mxGeometry>
        </mxCell>
        <mxCell id="oNFGNhtA4SceddN9MFem-253" value="&lt;font style=&quot;font-size: 24px;&quot;&gt;descricao&lt;/font&gt;" style="text;html=1;align=center;verticalAlign=middle;resizable=0;points=[];autosize=1;strokeColor=none;fillColor=none;" vertex="1" parent="oNFGNhtA4SceddN9MFem-252">
          <mxGeometry x="35" y="1.5" width="130" height="40" as="geometry" />
        </mxCell>
        <mxCell id="oNFGNhtA4SceddN9MFem-254" value="" style="group" vertex="1" connectable="0" parent="oNFGNhtA4SceddN9MFem-246">
          <mxGeometry x="400" width="200" height="43" as="geometry" />
        </mxCell>
        <mxCell id="oNFGNhtA4SceddN9MFem-255" value="" style="swimlane;startSize=0;" vertex="1" parent="oNFGNhtA4SceddN9MFem-254">
          <mxGeometry width="200" height="41.5" as="geometry" />
        </mxCell>
        <mxCell id="oNFGNhtA4SceddN9MFem-256" value="&lt;font style=&quot;font-size: 24px;&quot;&gt;endereco&lt;/font&gt;" style="text;html=1;align=center;verticalAlign=middle;resizable=0;points=[];autosize=1;strokeColor=none;fillColor=none;" vertex="1" parent="oNFGNhtA4SceddN9MFem-255">
          <mxGeometry x="40" y="1.5" width="120" height="40" as="geometry" />
        </mxCell>
        <mxCell id="oNFGNhtA4SceddN9MFem-257" value="" style="group" vertex="1" connectable="0" parent="oNFGNhtA4SceddN9MFem-246">
          <mxGeometry x="600" width="200" height="43" as="geometry" />
        </mxCell>
        <mxCell id="oNFGNhtA4SceddN9MFem-258" value="" style="swimlane;startSize=0;" vertex="1" parent="oNFGNhtA4SceddN9MFem-257">
          <mxGeometry width="200" height="41.5" as="geometry" />
        </mxCell>
        <mxCell id="oNFGNhtA4SceddN9MFem-259" value="&lt;font style=&quot;font-size: 24px;&quot;&gt;valor&lt;/font&gt;" style="text;html=1;align=center;verticalAlign=middle;resizable=0;points=[];autosize=1;strokeColor=none;fillColor=none;" vertex="1" parent="oNFGNhtA4SceddN9MFem-258">
          <mxGeometry x="60" y="1.5" width="80" height="40" as="geometry" />
        </mxCell>
        <mxCell id="oNFGNhtA4SceddN9MFem-260" value="" style="group" vertex="1" connectable="0" parent="oNFGNhtA4SceddN9MFem-246">
          <mxGeometry x="800" width="200" height="43" as="geometry" />
        </mxCell>
        <mxCell id="oNFGNhtA4SceddN9MFem-261" value="" style="swimlane;startSize=0;" vertex="1" parent="oNFGNhtA4SceddN9MFem-260">
          <mxGeometry width="200" height="41.5" as="geometry" />
        </mxCell>
        <mxCell id="oNFGNhtA4SceddN9MFem-262" value="&lt;font style=&quot;font-size: 24px;&quot;&gt;data&lt;/font&gt;" style="text;html=1;align=center;verticalAlign=middle;resizable=0;points=[];autosize=1;strokeColor=none;fillColor=none;" vertex="1" parent="oNFGNhtA4SceddN9MFem-261">
          <mxGeometry x="65" y="1.5" width="70" height="40" as="geometry" />
        </mxCell>
        <mxCell id="oNFGNhtA4SceddN9MFem-263" value="&lt;b&gt;Servico&lt;/b&gt;" style="text;html=1;align=left;verticalAlign=middle;whiteSpace=wrap;rounded=0;" vertex="1" parent="oNFGNhtA4SceddN9MFem-245">
          <mxGeometry width="110" height="30" as="geometry" />
        </mxCell>
        <mxCell id="oNFGNhtA4SceddN9MFem-264" value="" style="group" vertex="1" connectable="0" parent="oNFGNhtA4SceddN9MFem-267">
          <mxGeometry x="1000" y="30" width="200" height="43" as="geometry" />
        </mxCell>
        <mxCell id="oNFGNhtA4SceddN9MFem-265" value="" style="swimlane;startSize=0;" vertex="1" parent="oNFGNhtA4SceddN9MFem-264">
          <mxGeometry width="200" height="41.5" as="geometry" />
        </mxCell>
        <mxCell id="oNFGNhtA4SceddN9MFem-266" value="&lt;font style=&quot;font-size: 24px;&quot;&gt;hora&lt;/font&gt;" style="text;html=1;align=center;verticalAlign=middle;resizable=0;points=[];autosize=1;strokeColor=none;fillColor=none;" vertex="1" parent="oNFGNhtA4SceddN9MFem-265">
          <mxGeometry x="65" y="1.5" width="70" height="40" as="geometry" />
        </mxCell>
        <mxCell id="oNFGNhtA4SceddN9MFem-272" value="" style="group" vertex="1" connectable="0" parent="oNFGNhtA4SceddN9MFem-275">
          <mxGeometry x="1200" y="30" width="200" height="43" as="geometry" />
        </mxCell>
        <mxCell id="oNFGNhtA4SceddN9MFem-273" value="" style="swimlane;startSize=0;" vertex="1" parent="oNFGNhtA4SceddN9MFem-272">
          <mxGeometry width="200" height="41.5" as="geometry" />
        </mxCell>
        <mxCell id="oNFGNhtA4SceddN9MFem-274" value="&lt;font style=&quot;font-size: 24px;&quot;&gt;local_codigo&lt;/font&gt;" style="text;html=1;align=center;verticalAlign=middle;resizable=0;points=[];autosize=1;strokeColor=none;fillColor=none;" vertex="1" parent="oNFGNhtA4SceddN9MFem-273">
          <mxGeometry x="27" y="1.5" width="160" height="40" as="geometry" />
        </mxCell>
        <mxCell id="oNFGNhtA4SceddN9MFem-282" value="&lt;font color=&quot;#ff3333&quot; style=&quot;font-size: 24px;&quot;&gt;FK&lt;/font&gt;" style="text;html=1;align=center;verticalAlign=middle;whiteSpace=wrap;rounded=0;" vertex="1" parent="oNFGNhtA4SceddN9MFem-273">
          <mxGeometry x="-10" y="6.5" width="60" height="30" as="geometry" />
        </mxCell>
        <mxCell id="oNFGNhtA4SceddN9MFem-276" value="" style="group" vertex="1" connectable="0" parent="1">
          <mxGeometry x="1440" y="800" width="200" height="43" as="geometry" />
        </mxCell>
        <mxCell id="oNFGNhtA4SceddN9MFem-277" value="" style="swimlane;startSize=0;" vertex="1" parent="oNFGNhtA4SceddN9MFem-276">
          <mxGeometry width="200" height="41.5" as="geometry" />
        </mxCell>
        <mxCell id="oNFGNhtA4SceddN9MFem-278" value="&lt;font style=&quot;font-size: 24px;&quot;&gt;cliente_codigo&lt;/font&gt;" style="text;html=1;align=center;verticalAlign=middle;resizable=0;points=[];autosize=1;strokeColor=none;fillColor=none;" vertex="1" parent="oNFGNhtA4SceddN9MFem-277">
          <mxGeometry x="27" y="1.5" width="180" height="40" as="geometry" />
        </mxCell>
        <mxCell id="oNFGNhtA4SceddN9MFem-283" value="&lt;font color=&quot;#ff3333&quot; style=&quot;font-size: 24px;&quot;&gt;FK&lt;/font&gt;" style="text;html=1;align=center;verticalAlign=middle;whiteSpace=wrap;rounded=0;" vertex="1" parent="oNFGNhtA4SceddN9MFem-277">
          <mxGeometry x="-10" y="6.5" width="60" height="30" as="geometry" />
        </mxCell>
        <mxCell id="oNFGNhtA4SceddN9MFem-279" value="" style="group" vertex="1" connectable="0" parent="1">
          <mxGeometry x="1640" y="800" width="250" height="43" as="geometry" />
        </mxCell>
        <mxCell id="oNFGNhtA4SceddN9MFem-280" value="" style="swimlane;startSize=0;" vertex="1" parent="oNFGNhtA4SceddN9MFem-279">
          <mxGeometry width="250.00000000000003" height="41.5" as="geometry" />
        </mxCell>
        <mxCell id="oNFGNhtA4SceddN9MFem-281" value="&lt;font style=&quot;font-size: 24px;&quot;&gt;profissional_codigo&lt;/font&gt;" style="text;html=1;align=center;verticalAlign=middle;resizable=0;points=[];autosize=1;strokeColor=none;fillColor=none;" vertex="1" parent="oNFGNhtA4SceddN9MFem-280">
          <mxGeometry x="25.86046511627907" y="1.5" width="230" height="40" as="geometry" />
        </mxCell>
        <mxCell id="oNFGNhtA4SceddN9MFem-286" value="&lt;font color=&quot;#ff3333&quot; style=&quot;font-size: 24px;&quot;&gt;FK&lt;/font&gt;" style="text;html=1;align=center;verticalAlign=middle;whiteSpace=wrap;rounded=0;" vertex="1" parent="oNFGNhtA4SceddN9MFem-280">
          <mxGeometry x="-10" y="6.5" width="60" height="30" as="geometry" />
        </mxCell>
        <mxCell id="oNFGNhtA4SceddN9MFem-288" value="" style="group" vertex="1" connectable="0" parent="1">
          <mxGeometry x="40" y="890" width="1000" height="73" as="geometry" />
        </mxCell>
        <mxCell id="oNFGNhtA4SceddN9MFem-289" value="" style="group" vertex="1" connectable="0" parent="oNFGNhtA4SceddN9MFem-288">
          <mxGeometry y="30" width="1000" height="43" as="geometry" />
        </mxCell>
        <mxCell id="oNFGNhtA4SceddN9MFem-290" value="" style="group" vertex="1" connectable="0" parent="oNFGNhtA4SceddN9MFem-289">
          <mxGeometry width="240" height="43" as="geometry" />
        </mxCell>
        <mxCell id="oNFGNhtA4SceddN9MFem-291" value="" style="swimlane;startSize=0;" vertex="1" parent="oNFGNhtA4SceddN9MFem-290">
          <mxGeometry width="240" height="41.5" as="geometry" />
        </mxCell>
        <mxCell id="oNFGNhtA4SceddN9MFem-292" value="&lt;font style=&quot;font-size: 24px;&quot;&gt;cliente_codigo&lt;/font&gt;" style="text;html=1;align=center;verticalAlign=middle;resizable=0;points=[];autosize=1;strokeColor=none;fillColor=none;" vertex="1" parent="oNFGNhtA4SceddN9MFem-291">
          <mxGeometry x="67.4" y="1.5" width="180" height="40" as="geometry" />
        </mxCell>
        <mxCell id="oNFGNhtA4SceddN9MFem-293" value="&lt;font color=&quot;#014e66&quot; style=&quot;font-size: 24px;&quot;&gt;PK&lt;/font&gt;" style="text;html=1;align=center;verticalAlign=middle;whiteSpace=wrap;rounded=0;" vertex="1" parent="oNFGNhtA4SceddN9MFem-291">
          <mxGeometry x="-12" y="6.5" width="72" height="30" as="geometry" />
        </mxCell>
        <mxCell id="oNFGNhtA4SceddN9MFem-328" value="&lt;font color=&quot;#ff3333&quot; style=&quot;font-size: 24px;&quot;&gt;FK&lt;/font&gt;" style="text;html=1;align=center;verticalAlign=middle;whiteSpace=wrap;rounded=0;" vertex="1" parent="oNFGNhtA4SceddN9MFem-291">
          <mxGeometry x="30" y="6.5" width="60" height="30" as="geometry" />
        </mxCell>
        <mxCell id="oNFGNhtA4SceddN9MFem-294" value="" style="group" vertex="1" connectable="0" parent="oNFGNhtA4SceddN9MFem-289">
          <mxGeometry x="240" width="200" height="43" as="geometry" />
        </mxCell>
        <mxCell id="oNFGNhtA4SceddN9MFem-295" value="" style="swimlane;startSize=0;" vertex="1" parent="oNFGNhtA4SceddN9MFem-294">
          <mxGeometry width="200" height="41.5" as="geometry">
            <mxRectangle width="50" height="40" as="alternateBounds" />
          </mxGeometry>
        </mxCell>
        <mxCell id="oNFGNhtA4SceddN9MFem-296" value="&lt;span style=&quot;font-size: 24px;&quot;&gt;ddd&lt;/span&gt;" style="text;html=1;align=center;verticalAlign=middle;resizable=0;points=[];autosize=1;strokeColor=none;fillColor=none;" vertex="1" parent="oNFGNhtA4SceddN9MFem-295">
          <mxGeometry x="70" y="1.5" width="60" height="40" as="geometry" />
        </mxCell>
        <mxCell id="oNFGNhtA4SceddN9MFem-333" value="&lt;font color=&quot;#014e66&quot; style=&quot;font-size: 24px;&quot;&gt;PK&lt;/font&gt;" style="text;html=1;align=center;verticalAlign=middle;whiteSpace=wrap;rounded=0;" vertex="1" parent="oNFGNhtA4SceddN9MFem-295">
          <mxGeometry x="-2" y="6.5" width="72" height="30" as="geometry" />
        </mxCell>
        <mxCell id="oNFGNhtA4SceddN9MFem-297" value="" style="group" vertex="1" connectable="0" parent="oNFGNhtA4SceddN9MFem-289">
          <mxGeometry x="440" width="200" height="43" as="geometry" />
        </mxCell>
        <mxCell id="oNFGNhtA4SceddN9MFem-298" value="" style="swimlane;startSize=0;" vertex="1" parent="oNFGNhtA4SceddN9MFem-297">
          <mxGeometry width="200" height="41.5" as="geometry" />
        </mxCell>
        <mxCell id="oNFGNhtA4SceddN9MFem-299" value="&lt;font style=&quot;font-size: 24px;&quot;&gt;numero&lt;/font&gt;" style="text;html=1;align=center;verticalAlign=middle;resizable=0;points=[];autosize=1;strokeColor=none;fillColor=none;" vertex="1" parent="oNFGNhtA4SceddN9MFem-298">
          <mxGeometry x="50" y="1.5" width="100" height="40" as="geometry" />
        </mxCell>
        <mxCell id="oNFGNhtA4SceddN9MFem-334" value="&lt;font color=&quot;#014e66&quot; style=&quot;font-size: 24px;&quot;&gt;PK&lt;/font&gt;" style="text;html=1;align=center;verticalAlign=middle;whiteSpace=wrap;rounded=0;" vertex="1" parent="oNFGNhtA4SceddN9MFem-298">
          <mxGeometry y="6.5" width="72" height="30" as="geometry" />
        </mxCell>
        <mxCell id="oNFGNhtA4SceddN9MFem-300" value="&lt;b&gt;Cliente_telefone&lt;/b&gt;" style="text;html=1;align=left;verticalAlign=middle;whiteSpace=wrap;rounded=0;" vertex="1" parent="oNFGNhtA4SceddN9MFem-288">
          <mxGeometry width="110" height="30" as="geometry" />
        </mxCell>
        <mxCell id="oNFGNhtA4SceddN9MFem-314" value="" style="group" vertex="1" connectable="0" parent="1">
          <mxGeometry x="40" y="1010" width="1000" height="73" as="geometry" />
        </mxCell>
        <mxCell id="oNFGNhtA4SceddN9MFem-315" value="" style="group" vertex="1" connectable="0" parent="oNFGNhtA4SceddN9MFem-314">
          <mxGeometry y="30" width="1000" height="43" as="geometry" />
        </mxCell>
        <mxCell id="oNFGNhtA4SceddN9MFem-316" value="" style="group" vertex="1" connectable="0" parent="oNFGNhtA4SceddN9MFem-315">
          <mxGeometry width="240" height="43" as="geometry" />
        </mxCell>
        <mxCell id="oNFGNhtA4SceddN9MFem-317" value="" style="swimlane;startSize=0;" vertex="1" parent="oNFGNhtA4SceddN9MFem-316">
          <mxGeometry width="240" height="41.5" as="geometry" />
        </mxCell>
        <mxCell id="oNFGNhtA4SceddN9MFem-318" value="&lt;font style=&quot;font-size: 24px;&quot;&gt;local_codigo&lt;/font&gt;" style="text;html=1;align=center;verticalAlign=middle;resizable=0;points=[];autosize=1;strokeColor=none;fillColor=none;" vertex="1" parent="oNFGNhtA4SceddN9MFem-317">
          <mxGeometry x="67.4" y="1.5" width="160" height="40" as="geometry" />
        </mxCell>
        <mxCell id="oNFGNhtA4SceddN9MFem-319" value="&lt;font color=&quot;#014e66&quot; style=&quot;font-size: 24px;&quot;&gt;PK&lt;/font&gt;" style="text;html=1;align=center;verticalAlign=middle;whiteSpace=wrap;rounded=0;" vertex="1" parent="oNFGNhtA4SceddN9MFem-317">
          <mxGeometry x="-12" y="6.5" width="72" height="30" as="geometry" />
        </mxCell>
        <mxCell id="oNFGNhtA4SceddN9MFem-327" value="&lt;font color=&quot;#ff3333&quot; style=&quot;font-size: 24px;&quot;&gt;FK&lt;/font&gt;" style="text;html=1;align=center;verticalAlign=middle;whiteSpace=wrap;rounded=0;" vertex="1" parent="oNFGNhtA4SceddN9MFem-317">
          <mxGeometry x="30" y="6.5" width="60" height="30" as="geometry" />
        </mxCell>
        <mxCell id="oNFGNhtA4SceddN9MFem-320" value="" style="group" vertex="1" connectable="0" parent="oNFGNhtA4SceddN9MFem-315">
          <mxGeometry x="240" width="200" height="43" as="geometry" />
        </mxCell>
        <mxCell id="oNFGNhtA4SceddN9MFem-321" value="" style="swimlane;startSize=0;" vertex="1" parent="oNFGNhtA4SceddN9MFem-320">
          <mxGeometry width="200" height="41.5" as="geometry">
            <mxRectangle width="50" height="40" as="alternateBounds" />
          </mxGeometry>
        </mxCell>
        <mxCell id="oNFGNhtA4SceddN9MFem-322" value="&lt;font style=&quot;font-size: 24px;&quot;&gt;telefone&lt;/font&gt;" style="text;html=1;align=center;verticalAlign=middle;resizable=0;points=[];autosize=1;strokeColor=none;fillColor=none;" vertex="1" parent="oNFGNhtA4SceddN9MFem-321">
          <mxGeometry x="45" y="1.5" width="110" height="40" as="geometry" />
        </mxCell>
        <mxCell id="oNFGNhtA4SceddN9MFem-335" value="&lt;font color=&quot;#014e66&quot; style=&quot;font-size: 24px;&quot;&gt;PK&lt;/font&gt;" style="text;html=1;align=center;verticalAlign=middle;whiteSpace=wrap;rounded=0;" vertex="1" parent="oNFGNhtA4SceddN9MFem-321">
          <mxGeometry x="-2" y="6.5" width="72" height="30" as="geometry" />
        </mxCell>
        <mxCell id="oNFGNhtA4SceddN9MFem-326" value="&lt;b&gt;Local_telefone&lt;/b&gt;" style="text;html=1;align=left;verticalAlign=middle;whiteSpace=wrap;rounded=0;" vertex="1" parent="oNFGNhtA4SceddN9MFem-314">
          <mxGeometry width="110" height="30" as="geometry" />
        </mxCell>
        <mxCell id="oNFGNhtA4SceddN9MFem-329" value="&lt;h2&gt;&lt;font color=&quot;#d48383&quot;&gt;NOT NULL&lt;/font&gt;&lt;/h2&gt;" style="text;html=1;align=center;verticalAlign=middle;whiteSpace=wrap;rounded=0;" vertex="1" parent="1">
          <mxGeometry x="1240" y="843" width="200" height="30" as="geometry" />
        </mxCell>
        <mxCell id="oNFGNhtA4SceddN9MFem-330" value="&lt;h2&gt;&lt;font color=&quot;#d48383&quot;&gt;NOT NULL&lt;/font&gt;&lt;/h2&gt;" style="text;html=1;align=center;verticalAlign=middle;whiteSpace=wrap;rounded=0;" vertex="1" parent="1">
          <mxGeometry x="1440" y="843" width="200" height="30" as="geometry" />
        </mxCell>
        <mxCell id="oNFGNhtA4SceddN9MFem-331" value="&lt;h2&gt;&lt;font color=&quot;#d48383&quot;&gt;NOT NULL&lt;/font&gt;&lt;/h2&gt;" style="text;html=1;align=center;verticalAlign=middle;whiteSpace=wrap;rounded=0;" vertex="1" parent="1">
          <mxGeometry x="1640" y="843" width="250" height="30" as="geometry" />
        </mxCell>
        <mxCell id="oNFGNhtA4SceddN9MFem-332" value="&lt;h2&gt;&lt;font color=&quot;#d48383&quot;&gt;NOT NULL&lt;/font&gt;&lt;/h2&gt;" style="text;html=1;align=center;verticalAlign=middle;whiteSpace=wrap;rounded=0;" vertex="1" parent="1">
          <mxGeometry x="1040" y="363" width="230" height="30" as="geometry" />
        </mxCell>
        <mxCell id="oNFGNhtA4SceddN9MFem-336" value="" style="group" vertex="1" connectable="0" parent="1">
          <mxGeometry x="1270" y="320" width="200" height="43" as="geometry" />
        </mxCell>
        <mxCell id="oNFGNhtA4SceddN9MFem-337" value="" style="swimlane;startSize=0;" vertex="1" parent="oNFGNhtA4SceddN9MFem-336">
          <mxGeometry width="200" height="41.5" as="geometry" />
        </mxCell>
        <mxCell id="oNFGNhtA4SceddN9MFem-338" value="&lt;font style=&quot;font-size: 24px;&quot;&gt;ddd&lt;/font&gt;" style="text;html=1;align=center;verticalAlign=middle;resizable=0;points=[];autosize=1;strokeColor=none;fillColor=none;" vertex="1" parent="oNFGNhtA4SceddN9MFem-337">
          <mxGeometry x="70" y="1.5" width="60" height="40" as="geometry" />
        </mxCell>
        <mxCell id="oNFGNhtA4SceddN9MFem-339" value="" style="group" vertex="1" connectable="0" parent="1">
          <mxGeometry x="1470" y="320" width="200" height="43" as="geometry" />
        </mxCell>
        <mxCell id="oNFGNhtA4SceddN9MFem-340" value="" style="swimlane;startSize=0;" vertex="1" parent="oNFGNhtA4SceddN9MFem-339">
          <mxGeometry width="200" height="41.5" as="geometry" />
        </mxCell>
        <mxCell id="oNFGNhtA4SceddN9MFem-341" value="&lt;font style=&quot;font-size: 24px;&quot;&gt;numero&lt;/font&gt;" style="text;html=1;align=center;verticalAlign=middle;resizable=0;points=[];autosize=1;strokeColor=none;fillColor=none;" vertex="1" parent="oNFGNhtA4SceddN9MFem-340">
          <mxGeometry x="50" y="1.5" width="100" height="40" as="geometry" />
        </mxCell>
      </root>
    </mxGraphModel>
  </diagram>
</mxfile>
